<svg width="1024" height="1024" viewBox="0 0 1024 1024" xmlns="http://www.w3.org/2000/svg">
  <defs>
    <linearGradient id="bg" x1="0.2" y1="0.05" x2="0.8" y2="1">
      <stop offset="0" stop-color="#C6B4E8"/><stop offset="0.55" stop-color="#9479C7"/><stop offset="1" stop-color="#5E4795"/>
    </linearGradient>
    <radialGradient id="halo" cx="0.52" cy="0.5" r="0.46">
      <stop offset="0" stop-color="#FFF7E0" stop-opacity="1"/><stop offset="0.4" stop-color="#F2DCA4" stop-opacity="0.45"/><stop offset="1" stop-color="#F2DCA4" stop-opacity="0"/>
    </radialGradient>
    <linearGradient id="gold" x1="0" y1="0" x2="0" y2="1"><stop offset="0" stop-color="#FCEDBE"/><stop offset="1" stop-color="#E0BD6C"/></linearGradient>
    <linearGradient id="trail" x1="0" y1="0" x2="1" y2="1"><stop offset="0" stop-color="#EBD296" stop-opacity="0"/><stop offset="1" stop-color="#F8E6AC" stop-opacity="0.9"/></linearGradient>
    <clipPath id="sq"><rect x="100" y="100" width="824" height="824" rx="185"/></clipPath>
    <filter id="sh" x="-25%" y="-25%" width="150%" height="160%"><feDropShadow dx="0" dy="16" stdDeviation="24" flood-color="#2A1E4A" flood-opacity="0.32"/></filter>
  </defs>
  <g filter="url(#sh)"><rect x="100" y="100" width="824" height="824" rx="185" fill="url(#bg)"/></g>
  <g clip-path="url(#sq)">
    <rect x="100" y="100" width="824" height="824" fill="url(#bg)"/>
    <rect x="100" y="100" width="824" height="300" fill="#FFFFFF" opacity="0.08"/>
    <circle cx="512" cy="512" r="250" fill="url(#halo)"/>
    <ellipse cx="512" cy="512" rx="248" ry="124" fill="none" stroke="url(#trail)" stroke-width="9" transform="rotate(-28 512 512)" stroke-linecap="round"/>
    <ellipse cx="512" cy="512" rx="190" ry="92" fill="none" stroke="url(#trail)" stroke-width="6" transform="rotate(22 512 512)" opacity="0.75" stroke-linecap="round"/>
    <g transform="translate(512,512) scale(104)" fill="url(#gold)" stroke="#F8E8B2" stroke-width="0.012">
      <path d="M 0 -1 L 0.2245 -0.309 L 0.951 -0.309 L 0.3633 0.118 L 0.5878 0.809 L 0 0.382 L -0.5878 0.809 L -0.3633 0.118 L -0.951 -0.309 L -0.2245 -0.309 Z"/>
    </g>
    <g fill="url(#gold)"><circle cx="300" cy="436" r="10"/><circle cx="726" cy="592" r="11"/></g>
  </g>
</svg>
